# xmcd CD database file
# Copyright (C) 1993-1998 Ti Kan
#
# Track frame offsets:
#  182
#  10180
#  24017
#  40980
#  53465
#  69025
#  82165
#  103565
#  116820
#  131290
#
# Disc length: 1948 seconds
#
# Revision: 1
# Processed by: cddbd v1.4b41PL1 Copyright (c) Steve Scherf et al.
# Submitted via: CDWizzard Release:4.35
#
DISCID=6e079a0a
DTITLE=Orchester - Strictly Dancing - Jive - Rock'n'Roll
DYEAR=1900
DGENRE=
TTITLE0=Boogie - Woogie Bugle Boy
TTITLE1=Hip To Square
TTITLE2=Hanky Panky
TTITLE3=Bandstand Boogie
TTITLE4=In The Mood
TTITLE5=Jump Shout Boogie
TTITLE6=Right Back Where We Started From
TTITLE7=Rock'n'Roll Music
TTITLE8=Shake Your Tailfeather
TTITLE9=Your Mama Don't Dance
EXTD=
EXTT0=
EXTT1=
EXTT2=
EXTT3=
EXTT4=
EXTT5=
EXTT6=
EXTT7=
EXTT8=
EXTT9=
PLAYORDER=
